# xmcd
# 
# Track frame offsets:
#     150
#     22594
#     38032
#     55166
#     74930
#     95591
#     111865
#     133243
#     146244
#     169236
# 
# Disc length: 2553
# 
# Revision: 4
# Processed by: cddbd v1.5.2PL0 Copyright (c) Steve Scherf et al.
# Submitted via: fre:ac v1.0.31
# 
DISCID=9409f70a
DTITLE=Dr. John - Locked Down
DYEAR=2012
DGENRE=Rock/Pop
TTITLE0=Locked Down
TTITLE1=Revolution
TTITLE2=Big Shot
TTITLE3=Ice Age
TTITLE4=Getaway
TTITLE5=Kingdom of Izzness
TTITLE6=You Lie
TTITLE7=Eleggua
TTITLE8=My Children, My Angels
TTITLE9=God's Sure Good
EXTD=
EXTT0=
EXTT1=
EXTT2=
EXTT3=
EXTT4=
EXTT5=
EXTT6=
EXTT7=
EXTT8=
EXTT9=
PLAYORDER=
